Coordinates
version=1
nRows=24
nColumns=26
inDegrees=yes

Units are S.I. units (second, meters, Newtons, ...)
If the header above contains a line with 'inDegrees', this indicates whether rotational values are in degrees (yes) or radians (no).

endheader
time	pelvis_tilt	pelvis_list	pelvis_rotation	pelvis_tx	pelvis_ty	pelvis_tz	hip_flexion_r	hip_adduction_r	hip_rotation_r	knee_angle_r	knee_angle_r_beta	ankle_angle_r	subtalar_angle_r	mtp_angle_r	hip_flexion_l	hip_adduction_l	hip_rotation_l	knee_angle_l	knee_angle_l_beta	ankle_angle_l	subtalar_angle_l	mtp_angle_l	lumbar_extension	lumbar_bending	lumbar_rotation
      3.75500000	     -3.84219759	      0.29006682	      0.41513332	     -0.19005190	      0.91696214	     -0.56097846	     19.33257311	     -6.71659583	      2.27293979	     48.23151992	      0.84179883	     26.88199805	      0.00000000	      0.00000000	     19.88000005	     -3.34814079	      1.95170698	     48.54893672	      0.84733879	     25.02151624	      0.00000000	      0.00000000	    -16.97473848	      0.04927624	      1.19815961
      3.76000000	     -3.88694497	      0.22181059	      0.36593923	     -0.19000960	      0.91783190	     -0.56094449	     19.25050243	     -6.63845825	      2.26846477	     47.92165906	      0.83639073	     26.70000970	      0.00000000	      0.00000000	     19.74058135	     -3.42417845	      1.89070054	     48.19350227	      0.84113529	     24.98650623	      0.00000000	      0.00000000	    -16.97510245	      0.10610756	      1.22921000
      3.76500000	     -3.93164175	      0.14993115	      0.33854936	     -0.18988224	      0.91899832	     -0.56091941	     19.10767149	     -6.57125330	      2.20396021	     47.50875642	      0.82918422	     26.46180523	      0.00000000	      0.00000000	     19.56836831	     -3.50187998	      1.81177910	     47.77080983	      0.83375792	     24.89727416	      0.00000000	      0.00000000	    -16.95973598	      0.17260167	      1.24105949
      3.77000000	     -3.98172429	      0.07778097	      0.33211872	     -0.18967949	      0.92044569	     -0.56089980	     18.91547773	     -6.51651928	      2.08627818	     46.99928205	      0.82029222	     26.16054933	      0.00000000	      0.00000000	     19.37380749	     -3.57775914	      1.72246052	     47.28758142	      0.82532399	     24.74089558	      0.00000000	      0.00000000	    -16.92262810	      0.24426223	      1.23577783
      3.77500000	     -4.03990757	      0.00616921	      0.34443538	     -0.18941071	      0.92216171	     -0.56088596	     18.68336914	     -6.47344414	      1.92366708	     46.40366814	      0.80989679	     25.78774365	      0.00000000	      0.00000000	     19.16329565	     -3.65052290	      1.62892200	     46.74888661	      0.81592199	     24.51175542	      0.00000000	      0.00000000	    -16.86242805	      0.32021667	      1.21511194
      3.78000000	     -4.10777097	     -0.06494478	      0.37437830	     -0.18909033	      0.92413598	     -0.56088329	     18.42116155	     -6.44220207	      1.72031591	     45.73345101	      0.79819930	     25.34334998	      0.00000000	      0.00000000	     18.94349725	     -3.71888925	      1.54233842	     46.16144676	      0.80566923	     24.19765763	      0.00000000	      0.00000000	    -16.77967404	      0.40080196	      1.18149476
      3.78500000	     -4.18368063	     -0.13386374	      0.41729066	     -0.18872752	      0.92635160	     -0.56088729	     18.13569481	     -6.42175740	      1.48698695	     44.99903913	      0.78538139	     24.82057882	      0.00000000	      0.00000000	     18.71599035	     -3.78240601	      1.46545933	     45.53117500	      0.79466892	     23.79800349	      0.00000000	      0.00000000	    -16.67783430	      0.48283242	      1.14244831
      3.79000000	     -4.27035088	     -0.20103636	      0.46759308	     -0.18833877	      0.92879423	     -0.56089195	     17.83952585	     -6.40781110	      1.23750589	     44.21394815	      0.77167897	     24.21357977	      0.00000000	      0.00000000	     18.49020489	     -3.84348546	      1.40178342	     44.86887483	      0.78310960	     23.30492391	      0.00000000	      0.00000000	    -16.55622529	      0.56493975	      1.10223588
      3.79500000	     -4.36876519	     -0.26786034	      0.52158346	     -0.18793685	      0.93144947	     -0.56089987	     17.54402686	     -6.39813982	      0.97918325	     43.39627350	      0.75740786	     23.51645973	      0.00000000	      0.00000000	     18.27201360	     -3.90393360	      1.35386609	     44.18227513	      0.77112617	     22.71890498	      0.00000000	      0.00000000	    -16.41659978	      0.64890104	      1.06439308
      3.80000000	     -4.47794240	     -0.33431152	      0.57442542	     -0.18753587	      0.93430491	     -0.56090567	     17.25724634	     -6.38875674	      0.72445616	     42.55687181	      0.74275753	     22.72613122	      0.00000000	      0.00000000	     18.06583949	     -3.96560627	      1.32136348	     43.48087857	      0.75888449	     22.03668113	      0.00000000	      0.00000000	    -16.26179111	      0.73270116	      1.03086833
      3.80500000	     -4.59600240	     -0.40144990	      0.61938787	     -0.18714510	      0.93734741	     -0.56090431	     16.98552168	     -6.37628749	      0.48399787	     41.70803264	      0.72794249	     21.84630440	      0.00000000	      0.00000000	     17.87355646	     -4.03263153	      1.29468695	     42.77313467	      0.74653203	     21.26761232	      0.00000000	      0.00000000	    -16.09512822	      0.81580571	      1.00689752
      3.81000000	     -4.72312242	     -0.46857434	      0.65430507	     -0.18677797	      0.94056918	     -0.56089558	     16.73703621	     -6.36101035	      0.26429834	     40.86319684	      0.71319733	     20.87712249	      0.00000000	      0.00000000	     17.70113992	     -4.10458987	      1.27303199	     42.06839918	      0.73423208	     20.40303183	      0.00000000	      0.00000000	    -15.91931865	      0.89730182	      0.99188036
      3.81500000	     -4.85489057	     -0.53571060	      0.67787182	     -0.18643693	      0.94396525	     -0.56088141	     16.51131314	     -6.34353681	      0.06709131	     40.03184107	      0.69868743	     19.82872888	      0.00000000	      0.00000000	     17.54596782	     -4.18209483	      1.25219612	     41.37053283	      0.72205201	     19.45033057	      0.00000000	      0.00000000	    -15.74072617	      0.97787747	      0.98635911
      3.82000000	     -4.98688438	     -0.60310936	      0.68674005	     -0.18612634	      0.94752572	     -0.56085545	     16.30674502	     -6.31995315	     -0.09909305	     39.21648143	      0.68445672	     18.70579960	      0.00000000	      0.00000000	     17.40618968	     -4.26720479	      1.22332339	     40.68622177	      0.71010853	     18.41234563	      0.00000000	      0.00000000	    -15.56464964	      1.05665226	      0.99199661
      3.82500000	     -5.11365039	     -0.66916561	      0.68044962	     -0.18584436	      0.95124341	     -0.56081916	     16.11942832	     -6.29309832	     -0.23575592	     38.42232497	      0.67059608	     17.51454501	      0.00000000	      0.00000000	     17.27705728	     -4.35887815	      1.17924104	     40.01793025	      0.69844464	     17.29333898	      0.00000000	      0.00000000	    -15.39808355	      1.13282324	      1.00918933
      3.83000000	     -5.23267317	     -0.73096026	      0.65995214	     -0.18558558	      0.95510421	     -0.56077040	     15.94798867	     -6.26563041	     -0.34374798	     37.65268553	      0.65716333	     16.25995556	      0.00000000	      0.00000000	     17.15607916	     -4.45381767	      1.11679109	     39.36630111	      0.68707157	     16.10126204	      0.00000000	      0.00000000	    -15.24382651	      1.20187055	      1.03620305
      3.83500000	     -5.34091382	     -0.78773053	      0.62410566	     -0.18534802	      0.95908977	     -0.56070939	     15.79014515	     -6.23733049	     -0.42343438	     36.90930014	      0.64418881	     14.95102906	      0.00000000	      0.00000000	     17.03956004	     -4.55120781	      1.03058170	     38.73229326	      0.67600604	     14.85371280	      0.00000000	      0.00000000	    -15.10524770	      1.26323354	      1.07391068
      3.84000000	     -5.43919179	     -0.83667523	      0.57019788	     -0.18513565	      0.96317174	     -0.56062870	     15.64878685	     -6.20880039	     -0.46890601	     36.19394058	      0.63170343	     13.59309445	      0.00000000	      0.00000000	     16.92922473	     -4.64931246	      0.91339353	     38.11856924	      0.66529454	     13.55074548	      0.00000000	      0.00000000	    -14.98216202	      1.31253219	      1.12366067
      3.84500000	     -5.52454837	     -0.87484449	      0.50216453	     -0.18494322	      0.96732965	     -0.56053526	     15.52243615	     -6.18869941	     -0.49619465	     35.51262958	      0.61981231	     12.19938141	      0.00000000	      0.00000000	     16.82129157	     -4.74290215	      0.76787739	     37.52412829	      0.65491959	     12.20744293	      0.00000000	      0.00000000	    -14.87768479	      1.34722012	      1.18134458
      3.85000000	     -5.60306080	     -0.90287952	      0.42001590	     -0.18476330	      0.97153644	     -0.56042689	     15.41498592	     -6.17471382	     -0.50497505	     34.86432712	      0.60849730	     10.78042901	      0.00000000	      0.00000000	     16.72089013	     -4.83166951	      0.59522840	     36.94802962	      0.64486477	     10.83654209	      0.00000000	      0.00000000	    -14.78416393	      1.36767961	      1.24744429
      3.85500000	     -5.67375048	     -0.92005800	      0.32604982	     -0.18460509	      0.97576402	     -0.56030697	     15.32717446	     -6.16892038	     -0.50046415	     34.25204351	      0.59781093	      9.35073635	      0.00000000	      0.00000000	     16.62893451	     -4.91336871	      0.40039723	     36.39395852	      0.63519440	      9.44259915	      0.00000000	      0.00000000	    -14.70469205	      1.37620510	      1.31829500
      3.86000000	     -5.74067781	     -0.92512818	      0.22324777	     -0.18446919	      0.97998028	     -0.56017315	     15.26192360	     -6.17273028	     -0.48516449	     33.67412565	      0.58772437	      7.92227092	      0.00000000	      0.00000000	     16.55077902	     -4.98516419	      0.18804177	     35.86379133	      0.62594124	      8.03958936	      0.00000000	      0.00000000	    -14.63419641	      1.37066758	      1.38948520
      3.86500000	     -5.80548658	     -0.91872675	      0.11706889	     -0.18435388	      0.98416065	     -0.56003363	     15.21899273	     -6.18706384	     -0.46716803	     33.12940869	      0.57821726	      6.50995143	      0.00000000	      0.00000000	     16.48856397	     -5.04431399	     -0.03100290	     35.35817306	      0.61711654	      6.64846483	      0.00000000	      0.00000000	    -14.57092282	      1.35340299	      1.45630787
      3.87000000	     -5.87357169	     -0.89972224	      0.01018832	     -0.18426277	      0.98827002	     -0.55988538	     15.20035276	     -6.21108311	     -0.43994454	     32.61451034	      0.56923059	      5.13743027	      0.00000000	      0.00000000	     16.44856365	     -5.08779574	     -0.24954127	     34.87845122	      0.60874381	      5.28063128	      0.00000000	      0.00000000	    -14.50900748	      1.32411615	      1.51391209
